<svg t="1676438722093" class="icon" viewBox="0 0 1156 1024" version="1.1" xmlns="http://www.w3.org/2000/svg" p-id="60538" width="300" height="300"><path d="M43.244594 937.819313h1068.203095a43.090344 43.090344 0 1 1 0 86.142316H43.244594A43.627534 43.627534 0 0 1 0.000768 980.871286a42.783378 42.783378 0 0 1 43.243826-43.051973z m148.801739-43.090344a149.223817 149.223817 0 0 1-150.067973-149.645895V277.842545a150.067973 150.067973 0 0 1 300.135946 0v467.432383A148.456402 148.456402 0 0 1 191.854479 894.76734z m0-680.27489a62.083861 62.083861 0 0 0-63.58032 63.350095v467.432383a63.58032 63.58032 0 0 0 127.16064 0V277.842545A61.393188 61.393188 0 0 0 191.854479 214.49245z m385.318994 680.27489a149.223817 149.223817 0 0 1-150.067973-149.645895v-254.628246a150.067973 150.067973 0 0 1 300.097576 0v254.628246a150.029602 150.029602 0 0 1-150.067973 149.684266z m0-467.432383a62.083861 62.083861 0 0 0-63.58032 63.350096v254.628246a63.58032 63.58032 0 0 0 127.16064 0v-254.628246a62.083861 62.083861 0 0 0-63.61869-63.311725z m384.05276 467.432383a149.223817 149.223817 0 0 1-150.067973-149.645895V150.067973a150.067973 150.067973 0 0 1 300.135946 0v595.398809a150.067973 150.067973 0 0 1-150.106344 149.300558z m0-808.202945a62.083861 62.083861 0 0 0-63.58032 63.350095v595.398809a62.083861 62.083861 0 0 0 63.58032 63.350095 62.851276 62.851276 0 0 0 63.58032-63.350095V150.067973a62.851276 62.851276 0 0 0-63.618691-63.503578z" p-id="60539" fill="#77dbcf"></path></svg>
